<svg width="64" height="64" viewBox="0 0 64 64" fill="none" xmlns="http://www.w3.org/2000/svg">
  <defs>
    <linearGradient id="rose" x1="18" y1="16" x2="52" y2="52" gradientUnits="userSpaceOnUse">
      <stop stop-color="#E7BCA6"/>
      <stop offset="0.5" stop-color="#C68A70"/>
      <stop offset="1" stop-color="#A5674E"/>
    </linearGradient>
  </defs>
  <rect width="64" height="64" rx="16" fill="#F6F0E7"/>
  <!-- sage sprig -->
  <path d="M15 52 C17 42 20 34 26 27" stroke="#97A67F" stroke-width="2.2" stroke-linecap="round" fill="none"/>
  <g fill="#97A67F">
    <ellipse cx="17.5" cy="41" rx="4.2" ry="2.1" transform="rotate(-40 17.5 41)"/>
    <ellipse cx="21" cy="34" rx="4.2" ry="2.1" transform="rotate(-30 21 34)"/>
  </g>
  <circle cx="13.8" cy="46" r="1.9" fill="#E3B1A6"/>
  <circle cx="13.4" cy="50.5" r="1.6" fill="#E3B1A6"/>
  <!-- rose-gold heart -->
  <path d="M40 50C40 50 24 40 24 29.5C24 24 28 20 32.6 20C36 20 38.7 22 40 24.8C41.3 22 44 20 47.4 20C52 20 56 24 56 29.5C56 40 40 50 40 50Z" fill="url(#rose)"/>
</svg>
