<svg width="230" height="56" viewBox="0 0 230 56" fill="none" xmlns="http://www.w3.org/2000/svg">
  <defs>
    <linearGradient id="rose" x1="6" y1="10" x2="46" y2="48" gradientUnits="userSpaceOnUse">
      <stop stop-color="#E7BCA6"/>
      <stop offset="0.5" stop-color="#C68A70"/>
      <stop offset="1" stop-color="#A5674E"/>
    </linearGradient>
  </defs>
  <!-- botanical sprig -->
  <path d="M8 48 C11 36 15 26 23 18" stroke="#97A67F" stroke-width="2.4" stroke-linecap="round" fill="none"/>
  <g fill="#97A67F">
    <ellipse cx="11" cy="35" rx="5" ry="2.4" transform="rotate(-42 11 35)"/>
    <ellipse cx="15" cy="27" rx="5" ry="2.4" transform="rotate(-32 15 27)"/>
    <ellipse cx="20" cy="20" rx="5" ry="2.4" transform="rotate(-20 20 20)"/>
  </g>
  <circle cx="7" cy="41" r="2.3" fill="#E3B1A6"/>
  <circle cx="6.4" cy="46" r="2" fill="#E3B1A6"/>
  <!-- rose-gold heart -->
  <path d="M34 46C34 46 19 37 19 27.5C19 22.6 22.6 19 26.8 19C29.8 19 32.2 20.8 34 23.4C35.8 20.8 38.2 19 41.2 19C45.4 19 49 22.6 49 27.5C49 37 34 46 34 46Z" fill="url(#rose)"/>
  <!-- wordmark -->
  <text x="60" y="37" font-family="'Cormorant Garamond', 'Times New Roman', serif" font-size="30" font-weight="600" letter-spacing="3" fill="#3B3531">WEDFLOW</text>
</svg>
